<?xml version="1.0" standalone="no"?>
<!DOCTYPE svg PUBLIC "-//W3C//DTD SVG 20010904//EN"
 "http://www.w3.org/TR/2001/REC-SVG-20010904/DTD/svg10.dtd">
<svg version="1.0" xmlns="http://www.w3.org/2000/svg"
 width="512.000000pt" height="512.000000pt" viewBox="0 0 512.000000 512.000000"
 preserveAspectRatio="xMidYMid meet">

<g transform="translate(0.000000,512.000000) scale(0.100000,-0.100000)"
fill="#5f5f5f" stroke="none">
<path d="M2615 5107 c-59 -27 -88 -74 -124 -204 -32 -112 -33 -125 -22 -165
44 -145 236 -165 305 -30 24 48 66 209 66 255 0 48 -26 96 -72 130 -33 25
-113 32 -153 14z"/>
<path d="M1169 5001 c-73 -23 -119 -87 -119 -164 0 -37 14 -69 88 -198 103
-180 128 -203 220 -196 56 4 91 23 126 71 16 21 21 42 21 89 0 59 -4 69 -74
192 -81 140 -102 170 -141 190 -35 18 -90 25 -121 16z"/>
<path d="M4770 4644 c-571 -67 -1122 -218 -1663 -456 l-137 -60 -88 17 c-115
22 -372 31 -487 16 -330 -43 -640 -195 -871 -425 -343 -343 -487 -808 -408
-1321 l15 -100 -46 -115 c-177 -439 -233 -933 -159 -1405 35 -226 119 -509
197 -666 37 -74 48 -87 87 -106 24 -13 58 -23 75 -23 50 0 117 40 142 85 32
56 29 100 -13 197 -84 196 -148 434 -175 653 -18 144 -15 435 5 580 32 227 98
458 187 657 46 101 46 105 15 283 -33 189 -15 440 45 620 134 402 498 696 937
755 119 16 318 7 436 -20 135 -30 150 -28 299 41 535 247 1068 396 1681 469
149 17 172 23 202 45 93 71 86 204 -15 272 -40 27 -84 28 -261 7z"/>
<path d="M249 4061 c-95 -31 -143 -133 -105 -224 20 -48 55 -74 227 -161 150
-76 157 -79 204 -72 127 20 186 187 97 276 -37 36 -315 179 -360 185 -20 2
-49 0 -63 -4z"/>
<path d="M255 2544 c-162 -52 -192 -68 -222 -114 -32 -46 -32 -124 0 -171 32
-47 83 -79 127 -79 54 0 329 87 368 117 88 66 84 197 -10 266 -49 36 -108 32
-263 -19z"/>
<path d="M3020 2508 c-64 -18 -120 -88 -120 -149 0 -17 18 -87 39 -154 46
-143 84 -309 108 -462 21 -138 23 -517 4 -653 -36 -264 -114 -531 -222 -761
-55 -116 -61 -136 -57 -178 12 -124 144 -188 251 -122 42 26 99 132 172 316
26 66 51 124 55 128 4 5 30 -21 58 -56 100 -125 290 -285 407 -342 46 -23 62
-26 101 -20 86 13 156 107 138 188 -13 61 -35 87 -122 143 -170 112 -339 305
-429 492 l-35 74 13 116 c22 187 17 555 -10 732 -27 178 -67 348 -121 513 -34
105 -46 130 -75 156 -28 25 -94 54 -115 50 -3 0 -21 -5 -40 -11z"/>
</g>
</svg>
